<?xml version="1.0" encoding="utf-8"?>
<!-- Generator: Adobe Illustrator 25.1.0, SVG Export Plug-In . SVG Version: 6.00 Build 0)  -->
<svg version="1.1" id="Ebene_1" xmlns="http://www.w3.org/2000/svg" xmlns:xlink="http://www.w3.org/1999/xlink" x="0px" y="0px"
	 viewBox="0 0 1280 800" style="enable-background:new 0 0 1280 800;" xml:space="preserve">
<style type="text/css">
	.st0{fill:#FF5563;}
	.st1{display:none;}
	.st2{display:inline;fill:none;stroke:#000000;stroke-miterlimit:10;}
	.st3{display:inline;fill:none;stroke:#000000;stroke-width:0.8258;stroke-miterlimit:10;}
	.st4{display:inline;fill:none;stroke:#000000;stroke-width:15.5;stroke-miterlimit:10;}
</style>
<g id="Ebene_1_1_">
	<g>
		<path d="M191.4,417.2c9.7,0,17-4.5,20.9-12.7l19.6,5.9c-6.8,16.2-22.2,25.4-39.3,25.4c-27,0-45.4-19-45.4-46
			c0-29.2,18.1-48,44.3-48c27.6,0,43.8,20.4,41.5,52.5h-64.5C170,409,177.9,417.2,191.4,417.2z M168.9,379.3h43.8
			c-1.6-13.9-8.2-20.1-20.4-20.1C178.9,359.2,171.2,366.1,168.9,379.3z"/>
		<path d="M332.3,388.8c0,26.7-16,47-40.6,47c-9.2,0-16.9-2.6-22.9-7v44.1h-20V344.3h17.6v6.4c6.3-5.7,14.5-8.9,24.7-8.9
			C316.1,341.8,332.3,361.8,332.3,388.8z M311.3,388.8c0-16.2-7.3-29.2-23.3-29.2c-15.2,0-21.7,11.8-21.7,29.2
			c0,17.2,6.3,29.2,22.3,29.2C304.1,418,311.3,405.1,311.3,388.8z"/>
		<path d="M429.1,344.3v89h-17.6v-6.6c-6.3,5.8-14.8,9.1-25.4,9.1c-24.7,0-40.6-20.3-40.6-47c0-27,16.2-47,41.4-47
			c8.9,0,16.2,2.5,22.2,6.8v-4.4L429.1,344.3L429.1,344.3z M411.6,388.8c0-17.4-6.5-29.2-21.7-29.2c-16,0-23.3,13-23.3,29.2
			c0,16.3,7.2,29.2,22.7,29.2C405.2,418,411.6,406,411.6,388.8z"/>
		<path d="M447.3,407.5l20.3-3.1c2,8.8,9.6,14.2,20.4,14.2c9.5,0,15-4,15-10.6c0-6-2.6-7.5-22.7-12.9c-22.3-5.9-30.2-12.5-30.2-25.9
			c0-16.7,13.9-27.4,35-27.4c20.8,0,35.3,10.3,37.5,26.3l-20.3,3.6c-1.1-7.6-7.3-12.1-16.9-12.7c-9.3-0.4-15.6,3.2-15.6,9.2
			c0,5.2,3.5,7.2,24.3,12.5c21.4,5.5,29.1,12.5,29.1,26.4c0,17.9-13.9,28.8-36.8,28.8C464.6,435.8,450.2,425.5,447.3,407.5z"/>
		<path class="st0" d="M623.2,383.6v49.7h-20.1v-42.9c0-11-1.8-30-20.8-30c-10.1,0-20.9,5.5-20.9,27.1v45.8h-20.1v-89h17.7v9.9
			c6.5-7.7,16.2-12.5,29.1-12.5C621,341.7,623.2,373.1,623.2,383.6z"/>
		<path class="st0" d="M682.6,417.2c9.7,0,17-4.5,20.9-12.7l19.6,5.9c-6.8,16.2-22.2,25.4-39.3,25.4c-27,0-45.4-19-45.4-46
			c0-29.2,18.1-48,44.3-48c27.6,0,43.8,20.4,41.5,52.5h-64.5C661.2,409,669.1,417.2,682.6,417.2z M660.1,379.3h43.8
			c-1.6-13.9-8.2-20.1-20.4-20.1C670.1,359.2,662.4,366.1,660.1,379.3z"/>
		<path class="st0" d="M768.6,395.8c0,7.1-0.3,12.6,1.8,16c4,6.6,13.2,6.5,24.3,4.9v16.7c-17.6,3.4-35.6,1.8-42.5-11
			c-4.1-7.7-3.4-15.2-3.4-25.4v-37.1h-16.2v-15.6h16.2v-24.7h19.8v24.7h26.1v15.6h-26.1L768.6,395.8L768.6,395.8z"/>
		<path class="st0" d="M809,407.5l20.3-3.1c2,8.8,9.6,14.2,20.4,14.2c9.5,0,15-4,15-10.6c0-6-2.6-7.5-22.7-12.9
			c-22.3-5.9-30.2-12.5-30.2-25.9c0-16.7,13.9-27.4,35-27.4c20.8,0,35.3,10.3,37.5,26.3l-20.3,3.6c-1.1-7.6-7.3-12.1-16.9-12.7
			c-9.3-0.4-15.6,3.2-15.6,9.2c0,5.2,3.5,7.2,24.3,12.5c21.4,5.5,29.1,12.5,29.1,26.4c0,17.9-13.8,28.8-36.8,28.8
			C826.3,435.8,812,425.5,809,407.5z"/>
	</g>
</g>
<g id="Ebene_2_1_" class="st1">
	<line class="st2" x1="-7" y1="378.5" x2="1299" y2="378.5"/>
	<line class="st2" x1="-7" y1="424.5" x2="1299" y2="424.5"/>
	<line class="st2" x1="-7" y1="356.5" x2="1299" y2="356.5"/>
	<line class="st2" x1="-7" y1="330.5" x2="1299" y2="330.5"/>
	<line class="st2" x1="-7" y1="472.5" x2="1299" y2="472.5"/>
	<line class="st2" x1="-7" y1="509.5" x2="1299" y2="509.5"/>
	<line class="st2" x1="-7" y1="619.5" x2="1299" y2="619.5"/>
	<line class="st2" x1="-7" y1="665.5" x2="1299" y2="665.5"/>
	<line class="st2" x1="-7" y1="597.5" x2="1299" y2="597.5"/>
	<line class="st2" x1="-7" y1="571.5" x2="1299" y2="571.5"/>
	<line class="st2" x1="-7" y1="713.5" x2="1299" y2="713.5"/>
	<line class="st2" x1="-7" y1="689.5" x2="1299" y2="689.5"/>
	<line class="st2" x1="-7" y1="750.5" x2="1299" y2="750.5"/>
	<line class="st3" x1="937.6" y1="326" x2="937.6" y2="571.5"/>
	<line class="st2" x1="1010.2" y1="750.3" x2="847.1" y2="587.3"/>
	<line class="st2" x1="1020.6" y1="587.3" x2="858.3" y2="749.6"/>
	<line class="st2" x1="728.5" y1="690" x2="728.5" y2="714"/>
	<path class="st4" d="M634.1,388.6"/>
	<path class="st4" d="M683.1,388.6"/>
</g>
<g id="Ebene_4">
</g>
<g>
	<polygon class="st0" points="1016.9,390.9 1000.6,404.2 984.2,390.9 984.2,390.9 951.3,423.7 955.5,427.9 1000.5,472.9
		1044.9,428.5 1049.7,423.7 1016.9,390.9 	"/>
	<path class="st0" d="M1080.5,339.1L1080.5,339.1C1080.5,339.1,1080.5,339.1,1080.5,339.1l-53.7,43.8l31.9,31.9l15.7-15.7
		C1090.8,382.7,1092.9,357.3,1080.5,339.1z"/>
	<path class="st0" d="M920.5,339.3L920.5,339.3c-12.3,18.1-10.1,43.5,6.2,59.8l15.7,15.7l31.9-31.9L920.5,339.3
		C920.5,339.3,920.5,339.3,920.5,339.3z"/>
	<path class="st0" d="M1072,329.8c0,0-0.1-0.1-0.1-0.1c-1.6-1.3-3.2-2.5-5-3.6c-18-11.2-42.4-8.7-58.3,7.2l-8,8l-8-8
		c-15.8-15.8-39.9-18.3-57.8-7.5c-1.9,1.1-3.7,2.4-5.4,3.9c-0.1,0.1-0.2,0.2-0.3,0.2l71.6,58L1072,329.8z"/>
</g>
</svg>
