<?xml version="1.0" encoding="UTF-8" standalone="no"?>
<!DOCTYPE svg PUBLIC "-//W3C//DTD SVG 1.1//EN" "http://www.w3.org/Graphics/SVG/1.1/DTD/svg11.dtd">
<svg version="1.1" xmlns="http://www.w3.org/2000/svg" xmlns:xlink="http://www.w3.org/1999/xlink" preserveAspectRatio="xMidYMid meet" viewBox="0 0 490 84" width="495.83" height="85"><defs><path d="M46.15 46.25C47.13 46.55 54.97 48.9 55.95 49.2C52.55 57.3 44.85 61.9 36.3 61.9C22.8 61.9 13.6 52.4 13.6 38.9C13.6 24.3 22.65 14.9 35.75 14.9C49.55 14.9 57.65 25.1 56.5 41.15C53.28 41.15 27.47 41.15 24.25 41.15C25 48.5 28.95 52.6 35.7 52.6C40.55 52.6 44.2 50.35 46.15 46.25ZM46.35 33.65C45.55 26.7 42.25 23.6 36.15 23.6C29.45 23.6 25.6 27.05 24.45 33.65C28.83 33.65 44.16 33.65 46.35 33.65Z" id="beT5jWOi"></path><path d="M85.85 61.9C81.25 61.9 77.4 60.6 74.4 58.4C74.4 59.87 74.4 67.22 74.4 80.45L64.4 80.45L64.4 16.15L73.2 16.15C73.2 18.07 73.2 19.14 73.2 19.35C76.35 16.5 80.45 14.9 85.55 14.9C98.05 14.9 106.15 24.9 106.15 38.4C106.15 51.75 98.15 61.9 85.85 61.9ZM84 23.8C76.4 23.8 73.15 29.7 73.15 38.4C73.15 47 76.3 53 84.3 53C92.05 53 95.65 46.55 95.65 38.4C95.65 30.3 92 23.8 84 23.8Z" id="f3ZorZlMd"></path><path d="M154.55 60.65L145.75 60.65C145.75 58.67 145.75 57.57 145.75 57.35C142.6 60.25 138.35 61.9 133.05 61.9C120.7 61.9 112.75 51.75 112.75 38.4C112.75 24.9 120.85 14.9 133.45 14.9C137.9 14.9 141.55 16.15 144.55 18.3C144.55 18.15 144.55 17.42 144.55 16.1L154.55 16.15L154.55 16.15L154.55 60.65ZM134.95 23.8C126.95 23.8 123.3 30.3 123.3 38.4C123.3 46.55 126.9 53 134.65 53C142.6 53 145.8 47 145.8 38.4C145.8 29.7 142.55 23.8 134.95 23.8Z" id="b5vPPlRUGN"></path><path d="M173.8 46.2C174.8 50.6 178.6 53.3 184 53.3C188.75 53.3 191.5 51.3 191.5 48C191.5 45 190.2 44.25 180.15 41.55C169 38.6 165.05 35.3 165.05 28.6C165.05 20.25 172 14.9 182.55 14.9C192.95 14.9 200.2 20.05 201.3 28.05C200.29 28.23 192.17 29.67 191.15 29.85C190.6 26.05 187.5 23.8 182.7 23.5C178.05 23.3 174.9 25.1 174.9 28.1C174.9 30.7 176.65 31.7 187.05 34.35C197.75 37.1 201.6 40.6 201.6 47.55C201.6 56.5 194.65 61.95 183.2 61.95C172.3 61.9 165.1 56.75 163.65 47.75C165.68 47.44 172.79 46.36 173.8 46.2Z" id="a1LBetYjsR"></path><path d="M251.6 60.65L241.55 60.65C241.55 47.78 241.55 40.63 241.55 39.2C241.55 33.7 240.65 24.2 231.15 24.2C226.1 24.2 220.7 26.95 220.7 37.75C220.7 39.28 220.7 46.91 220.7 60.65L210.65 60.65L210.65 16.15L219.5 16.15C219.5 19.12 219.5 20.77 219.5 21.1C222.75 17.25 227.6 14.85 234.05 14.85C250.5 14.85 251.6 30.55 251.6 35.8C251.6 39.11 251.6 47.4 251.6 60.65Z" id="aFIB9jiFY"></path><path d="M291.75 46.25C292.73 46.55 300.57 48.9 301.55 49.2C298.15 57.3 290.45 61.9 281.9 61.9C268.4 61.9 259.2 52.4 259.2 38.9C259.2 24.3 268.25 14.9 281.35 14.9C295.15 14.9 303.25 25.1 302.1 41.15C298.88 41.15 273.08 41.15 269.85 41.15C270.6 48.5 274.55 52.6 281.3 52.6C286.15 52.6 289.8 50.35 291.75 46.25ZM291.95 33.65C291.15 26.7 287.85 23.6 281.75 23.6C275.05 23.6 271.2 27.05 270.05 33.65C274.43 33.65 289.76 33.65 291.95 33.65Z" id="bThj0MjSN"></path><path d="M325.2 49.9C327.2 53.2 331.8 53.15 337.35 52.35C337.35 53.19 337.35 59.87 337.35 60.7C328.55 62.4 319.55 61.6 316.1 55.2C314.05 51.35 314.4 47.6 314.4 42.5C314.4 41.26 314.4 35.08 314.4 23.95L306.3 23.95L306.3 16.15L314.4 16.15L314.4 3.8L324.3 3.8L324.3 16.15L337.35 16.15L337.35 23.95L324.3 23.95L324.3 41.9L324.3 41.9C324.2 46.1 324.5 48.77 325.2 49.9Z" id="cypC8xazy"></path><path d="M354.65 46.2C355.65 50.6 359.45 53.3 364.85 53.3C369.6 53.3 372.35 51.3 372.35 48C372.35 45 371.05 44.25 361 41.55C349.85 38.6 345.9 35.3 345.9 28.6C345.9 20.25 352.85 14.9 363.4 14.9C373.8 14.9 381.05 20.05 382.15 28.05C381.13 28.23 373.01 29.67 372 29.85C371.45 26.05 368.35 23.8 363.55 23.5C358.9 23.3 355.75 25.1 355.75 28.1C355.75 30.7 357.5 31.7 367.9 34.35C378.6 37.1 382.45 40.6 382.45 47.55C382.45 56.5 375.55 61.95 364.05 61.95C353.15 61.9 346 56.75 344.5 47.75C346.53 47.44 353.64 46.36 354.65 46.2Z" id="awczaVfa1"></path><path d="M440.3 46.1L432.1 39.45L432.1 39.45L415.65 55.85L417.75 57.95L440.25 80.45L462.45 58.25L464.85 55.85L448.45 39.45L448.45 39.45L440.3 46.1Z" id="eO5BfGk4E"></path><path d="M480.25 13.55C480.25 13.55 480.25 13.55 480.25 13.55C478.46 15.01 469.51 22.31 453.4 35.45L469.35 51.4C474.06 46.69 476.68 44.07 477.2 43.55C485.4 35.35 486.45 22.65 480.25 13.55C480.25 13.55 480.25 13.55 480.25 13.55Z" id="a6w87w1Zen"></path><path d="M400.25 13.65C394.1 22.7 395.2 35.4 403.35 43.55C403.87 44.07 406.49 46.69 411.2 51.4L427.15 35.45C411.01 22.37 402.04 15.1 400.25 13.65C400.25 13.65 400.25 13.65 400.25 13.65C400.25 13.65 400.25 13.65 400.25 13.65Z" id="cJVT9SG1"></path><path d="M475.95 8.85C475.15 8.2 474.35 7.6 473.45 7.05C464.45 1.45 452.25 2.7 444.3 10.65C444.03 10.92 442.7 12.25 440.3 14.65C437.9 12.25 436.57 10.92 436.3 10.65C428.4 2.75 416.35 1.5 407.4 6.9C406.45 7.45 405.55 8.1 404.7 8.85C404.65 8.9 404.6 8.95 404.55 8.95C406.94 10.88 418.87 20.55 440.35 37.95L476 8.9C475.97 8.87 475.96 8.86 475.95 8.85Z" id="b11DZwTKV5"></path></defs><g><g><g><use xlink:href="#beT5jWOi" opacity="1" fill="#ffffff" fill-opacity="1"></use><g><use xlink:href="#beT5jWOi" opacity="1" fill-opacity="0" stroke="#ffffff" stroke-width="1" stroke-opacity="0"></use></g></g><g><use xlink:href="#f3ZorZlMd" opacity="1" fill="#ffffff" fill-opacity="1"></use><g><use xlink:href="#f3ZorZlMd" opacity="1" fill-opacity="0" stroke="#ffffff" stroke-width="1" stroke-opacity="0"></use></g></g><g><use xlink:href="#b5vPPlRUGN" opacity="1" fill="#ffffff" fill-opacity="1"></use><g><use xlink:href="#b5vPPlRUGN" opacity="1" fill-opacity="0" stroke="#ffffff" stroke-width="1" stroke-opacity="0"></use></g></g><g><use xlink:href="#a1LBetYjsR" opacity="1" fill="#ffffff" fill-opacity="1"></use><g><use xlink:href="#a1LBetYjsR" opacity="1" fill-opacity="0" stroke="#ffffff" stroke-width="1" stroke-opacity="0"></use></g></g><g><use xlink:href="#aFIB9jiFY" opacity="1" fill="#ffffff" fill-opacity="1"></use><g><use xlink:href="#aFIB9jiFY" opacity="1" fill-opacity="0" stroke="#ffffff" stroke-width="1" stroke-opacity="0"></use></g></g><g><use xlink:href="#bThj0MjSN" opacity="1" fill="#ffffff" fill-opacity="1"></use><g><use xlink:href="#bThj0MjSN" opacity="1" fill-opacity="0" stroke="#ffffff" stroke-width="1" stroke-opacity="0"></use></g></g><g><use xlink:href="#cypC8xazy" opacity="1" fill="#ffffff" fill-opacity="1"></use><g><use xlink:href="#cypC8xazy" opacity="1" fill-opacity="0" stroke="#ffffff" stroke-width="1" stroke-opacity="0"></use></g></g><g><use xlink:href="#awczaVfa1" opacity="1" fill="#ffffff" fill-opacity="1"></use><g><use xlink:href="#awczaVfa1" opacity="1" fill-opacity="0" stroke="#ffffff" stroke-width="1" stroke-opacity="0"></use></g></g><g><use xlink:href="#eO5BfGk4E" opacity="1" fill="#ffffff" fill-opacity="1"></use><g><use xlink:href="#eO5BfGk4E" opacity="1" fill-opacity="0" stroke="#ffffff" stroke-width="1" stroke-opacity="0"></use></g></g><g><use xlink:href="#a6w87w1Zen" opacity="1" fill="#ffffff" fill-opacity="1"></use><g><use xlink:href="#a6w87w1Zen" opacity="1" fill-opacity="0" stroke="#ffffff" stroke-width="1" stroke-opacity="0"></use></g></g><g><use xlink:href="#cJVT9SG1" opacity="1" fill="#ffffff" fill-opacity="1"></use><g><use xlink:href="#cJVT9SG1" opacity="1" fill-opacity="0" stroke="#ffffff" stroke-width="1" stroke-opacity="0"></use></g></g><g><use xlink:href="#b11DZwTKV5" opacity="1" fill="#ffffff" fill-opacity="1"></use><g><use xlink:href="#b11DZwTKV5" opacity="1" fill-opacity="0" stroke="#ffffff" stroke-width="1" stroke-opacity="0"></use></g></g></g></g></svg>